<?xml version="1.0" standalone="no"?>
<!DOCTYPE svg PUBLIC "-//W3C//DTD SVG 20010904//EN"
 "http://www.w3.org/TR/2001/REC-SVG-20010904/DTD/svg10.dtd">
<svg version="1.0" xmlns="http://www.w3.org/2000/svg"
 width="1280.000000pt" height="1019.000000pt" viewBox="0 0 1280.000000 1019.000000"
 preserveAspectRatio="xMidYMid meet">
<metadata>
Created by potrace 1.15, written by Peter Selinger 2001-2017
</metadata>
<g transform="translate(0.000000,1019.000000) scale(0.100000,-0.100000)"
fill="#000000" stroke="none">
<path d="M6266 10085 c-287 -55 -505 -189 -678 -419 -33 -45 -64 -82 -68 -84
-4 -2 -37 18 -73 43 -261 182 -631 239 -978 151 -313 -79 -554 -291 -691 -607
l-43 -99 -125 0 c-396 0 -663 -149 -784 -438 -55 -130 -70 -220 -71 -422 0
-202 14 -279 71 -392 22 -43 23 -52 11 -66 -119 -143 -129 -152 -171 -152
-127 0 -327 -81 -444 -180 l-69 -58 -63 54 c-173 147 -402 209 -676 184 -223
-20 -372 -78 -485 -190 -98 -97 -147 -196 -173 -344 l-12 -70 -113 -22 c-136
-27 -213 -55 -290 -104 -113 -73 -186 -167 -228 -295 -23 -70 -26 -97 -27
-215 -1 -148 9 -192 68 -305 37 -72 158 -198 238 -249 107 -67 296 -126 408
-126 25 0 29 -6 54 -82 15 -46 45 -113 66 -149 43 -72 141 -170 212 -212 68
-40 211 -84 313 -98 111 -14 306 -6 395 17 89 22 212 82 287 137 l61 46 58
-45 c72 -56 174 -106 279 -136 70 -20 102 -23 250 -22 189 0 288 18 407 72
167 76 293 228 344 411 l17 60 46 7 c40 5 141 25 207 41 15 3 33 -11 79 -66
210 -252 500 -381 860 -381 265 0 515 87 709 247 l28 24 47 -80 c174 -300 418
-472 751 -532 109 -20 373 -17 484 5 324 64 568 247 738 553 l34 61 24 -19
c241 -192 475 -268 785 -256 397 15 682 174 895 499 l62 95 116 6 c338 17 583
162 703 415 101 214 119 579 38 784 -11 28 -18 52 -17 53 2 1 38 8 81 14 143
23 250 68 366 154 36 26 58 37 66 31 67 -51 178 -117 233 -138 125 -48 200
-58 382 -53 181 5 281 27 398 86 153 78 272 230 321 412 l13 47 65 7 c314 33
581 254 639 527 31 144 0 356 -69 478 -48 85 -134 163 -229 209 -96 46 -166
65 -295 82 l-93 12 -6 36 c-50 295 -203 465 -489 543 -69 19 -107 22 -275 22
-174 1 -203 -1 -273 -22 -111 -32 -219 -88 -298 -155 l-69 -57 -70 59 c-81 67
-183 120 -296 153 -71 21 -100 23 -274 22 -168 0 -206 -3 -275 -22 -182 -50
-332 -155 -401 -280 l-29 -54 -59 6 c-32 3 -80 6 -107 6 l-47 0 -47 69 c-104
157 -266 300 -429 380 -232 113 -565 140 -823 65 -83 -24 -235 -91 -295 -130
-15 -10 -29 -16 -30 -14 -125 173 -300 317 -467 385 -147 60 -234 76 -426 81
-132 2 -201 -1 -259 -11z"/>
<path d="M10551 5448 c-124 -124 -191 -262 -191 -396 0 -168 89 -252 265 -252
61 0 81 5 136 33 85 43 112 93 113 205 0 140 -59 274 -177 399 -77 82 -75 82
-146 11z"/>
<path d="M3779 4988 c-141 -133 -218 -302 -206 -451 8 -94 37 -144 107 -182
50 -27 63 -30 150 -30 84 0 101 3 147 27 65 35 99 89 108 173 15 138 -48 293
-173 426 -41 43 -77 79 -81 79 -3 0 -27 -19 -52 -42z"/>
<path d="M7752 4253 c-148 -152 -214 -344 -171 -498 26 -93 134 -151 268 -143
110 7 192 55 220 131 20 52 13 195 -12 267 -37 103 -132 237 -208 291 l-30 21
-67 -69z"/>
<path d="M5073 3886 c-167 -179 -223 -416 -130 -550 46 -66 196 -102 298 -72
124 35 169 97 169 231 0 96 -19 166 -67 254 -37 66 -166 211 -188 211 -7 0
-44 -33 -82 -74z"/>
<path d="M9721 3891 c-36 -37 -81 -93 -99 -123 -103 -172 -108 -368 -12 -451
100 -86 274 -88 374 -5 57 47 70 80 70 183 0 106 -28 196 -90 291 -41 63 -147
174 -166 174 -6 0 -41 -31 -77 -69z"/>
<path d="M1724 3673 c-141 -133 -215 -300 -201 -453 7 -86 40 -138 107 -175
50 -27 63 -30 150 -30 88 0 99 2 150 31 42 24 61 43 80 80 49 94 28 255 -51
392 -28 49 -163 202 -178 202 -4 0 -30 -21 -57 -47z"/>
<path d="M6943 3298 c-78 -81 -126 -157 -159 -255 -22 -65 -26 -91 -22 -158 6
-111 32 -156 113 -198 52 -27 70 -31 140 -31 83 0 154 22 198 62 97 87 77 313
-43 488 -40 56 -136 154 -153 154 -7 0 -40 -28 -74 -62z"/>
<path d="M3743 2216 c-141 -150 -201 -336 -158 -482 8 -27 27 -62 42 -76 106
-102 334 -94 417 14 74 98 51 294 -55 452 -51 77 -139 166 -163 166 -8 0 -45
-33 -83 -74z"/>
<path d="M8987 2070 c-73 -67 -149 -180 -178 -267 -33 -98 -32 -213 2 -279 20
-41 34 -54 88 -81 55 -28 75 -33 137 -33 118 0 204 42 244 118 6 13 14 56 17
95 11 145 -47 284 -172 415 l-81 85 -57 -53z"/>
<path d="M6096 1697 c-132 -135 -197 -293 -181 -442 14 -133 99 -200 255 -200
73 0 93 4 143 28 44 22 63 39 85 75 25 43 27 56 26 142 -1 106 -19 166 -81
273 -37 62 -152 187 -173 187 -7 0 -40 -28 -74 -63z"/>
<path d="M10679 1513 c-129 -135 -174 -235 -174 -388 1 -107 11 -139 57 -182
31 -29 102 -60 159 -68 97 -14 230 38 264 105 72 140 10 371 -144 529 -37 39
-75 71 -83 71 -8 0 -44 -30 -79 -67z"/>
<path d="M2453 1326 c-119 -127 -181 -280 -169 -413 13 -144 98 -216 256 -217
93 0 173 33 214 87 64 83 57 242 -15 387 -43 86 -168 230 -199 230 -10 0 -49
-33 -87 -74z"/>
<path d="M8218 632 c-91 -95 -150 -205 -168 -312 -32 -191 52 -306 233 -318
57 -3 84 0 130 18 114 43 155 119 144 264 -7 90 -36 168 -98 261 -45 66 -139
165 -159 165 -4 0 -41 -35 -82 -78z"/>
</g>
</svg>
